<mxfile host="app.diagrams.net" modified="2024-05-06T22:54:08.314Z" agent="Mozilla/5.0 (Windows NT 10.0; Win64; x64) AppleWebKit/537.36 (KHTML, like Gecko) Chrome/124.0.0.0 Safari/537.36" etag="Tuxywy3D8ZH0Ge7U90uQ" version="24.3.0" type="github">
  <diagram name="Page-1" id="IFO9jll74MJHKwy7mGaH">
    <mxGraphModel dx="1434" dy="738" grid="0" gridSize="10" guides="1" tooltips="1" connect="1" arrows="1" fold="1" page="1" pageScale="1" pageWidth="850" pageHeight="1100" math="0" shadow="0">
      <root>
        <mxCell id="0" />
        <mxCell id="1" parent="0" />
        <mxCell id="tMJNUVbW8pnuoRqj2yc3-6" value="Comments" style="swimlane;whiteSpace=wrap;html=1;" vertex="1" parent="1">
          <mxGeometry x="94" y="79" width="200" height="295" as="geometry" />
        </mxCell>
        <mxCell id="tMJNUVbW8pnuoRqj2yc3-9" value="CommentID (primary key)&lt;div&gt;&lt;span style=&quot;white-space: pre;&quot;&gt;&#x9;&lt;/span&gt;auto-increment&amp;nbsp;&lt;br&gt;&lt;div style=&quot;line-height: 200%;&quot;&gt;Comment Author (foreign key)&lt;/div&gt;&lt;div style=&quot;line-height: 200%;&quot;&gt;&lt;span style=&quot;white-space: pre;&quot;&gt;&#x9;&lt;/span&gt;references users(username)&lt;br&gt;&lt;/div&gt;&lt;div style=&quot;line-height: 200%;&quot;&gt;&lt;span style=&quot;white-space: pre;&quot;&gt;&#x9;&lt;/span&gt;multiple&lt;br&gt;&lt;/div&gt;&lt;div style=&quot;line-height: 200%;&quot;&gt;Votes&lt;/div&gt;&lt;div style=&quot;line-height: 200%;&quot;&gt;Content&lt;/div&gt;&lt;div style=&quot;line-height: 200%;&quot;&gt;PostID&lt;span style=&quot;background-color: initial;&quot;&gt;&amp;nbsp;(foreign key)&lt;/span&gt;&lt;/div&gt;&lt;div style=&quot;line-height: 200%;&quot;&gt;&lt;span style=&quot;background-color: initial;&quot;&gt;&lt;span style=&quot;white-space: pre;&quot;&gt;&#x9;&lt;/span&gt;references posts (idpost)&lt;br&gt;&lt;/span&gt;&lt;/div&gt;&lt;/div&gt;&lt;div style=&quot;line-height: 200%;&quot;&gt;&lt;span style=&quot;background-color: initial;&quot;&gt;&lt;span style=&quot;white-space: pre;&quot;&gt;&#x9;&lt;/span&gt;multiple&lt;br&gt;&lt;/span&gt;&lt;/div&gt;" style="text;html=1;align=left;verticalAlign=middle;whiteSpace=wrap;rounded=0;" vertex="1" parent="tMJNUVbW8pnuoRqj2yc3-6">
          <mxGeometry y="25" width="200" height="270" as="geometry" />
        </mxCell>
        <mxCell id="tMJNUVbW8pnuoRqj2yc3-12" value="Posts" style="swimlane;whiteSpace=wrap;html=1;" vertex="1" parent="1">
          <mxGeometry x="357" y="79" width="200" height="295" as="geometry" />
        </mxCell>
        <mxCell id="tMJNUVbW8pnuoRqj2yc3-13" value="&lt;div style=&quot;line-height: 200%;&quot;&gt;&lt;span style=&quot;background-color: initial;&quot;&gt;idpost (primary key)&lt;/span&gt;&lt;/div&gt;&lt;div style=&quot;line-height: 200%;&quot;&gt;&lt;span style=&quot;background-color: initial;&quot;&gt;&lt;span style=&quot;white-space: pre;&quot;&gt;&#x9;&lt;/span&gt;auto-increment&amp;nbsp;&lt;br&gt;&lt;/span&gt;&lt;/div&gt;&lt;div style=&quot;line-height: 200%;&quot;&gt;&lt;span style=&quot;background-color: initial;&quot;&gt;header&lt;/span&gt;&lt;/div&gt;&lt;div style=&quot;line-height: 200%;&quot;&gt;&lt;span style=&quot;background-color: initial;&quot;&gt;author (foreign key)&lt;/span&gt;&lt;/div&gt;&lt;div style=&quot;line-height: 200%;&quot;&gt;&lt;span style=&quot;background-color: initial;&quot;&gt;&lt;span style=&quot;white-space: pre;&quot;&gt;&#x9;&lt;/span&gt;references users(username)&lt;br&gt;&lt;/span&gt;&lt;/div&gt;&lt;div style=&quot;line-height: 200%;&quot;&gt;&lt;span style=&quot;background-color: initial;&quot;&gt;&lt;span style=&quot;white-space: pre;&quot;&gt;&#x9;&lt;/span&gt;multiple&lt;br&gt;&lt;/span&gt;&lt;/div&gt;&lt;div style=&quot;line-height: 200%;&quot;&gt;&lt;span style=&quot;background-color: initial;&quot;&gt;content votes&lt;/span&gt;&lt;/div&gt;&lt;div style=&quot;line-height: 200%;&quot;&gt;&lt;span style=&quot;background-color: initial;&quot;&gt;image&lt;/span&gt;&lt;/div&gt;&lt;div style=&quot;line-height: 200%;&quot;&gt;&lt;span style=&quot;background-color: initial;&quot;&gt;&lt;br&gt;&lt;/span&gt;&lt;/div&gt;" style="text;html=1;align=left;verticalAlign=middle;whiteSpace=wrap;rounded=0;" vertex="1" parent="tMJNUVbW8pnuoRqj2yc3-12">
          <mxGeometry y="25" width="200" height="270" as="geometry" />
        </mxCell>
        <mxCell id="tMJNUVbW8pnuoRqj2yc3-14" value="Users" style="swimlane;whiteSpace=wrap;html=1;" vertex="1" parent="1">
          <mxGeometry x="94" y="438" width="200" height="200" as="geometry" />
        </mxCell>
        <mxCell id="tMJNUVbW8pnuoRqj2yc3-15" value="&lt;div style=&quot;line-height: 200%;&quot;&gt;iduser (primary key)&lt;/div&gt;&lt;div style=&quot;line-height: 200%;&quot;&gt;&lt;br&gt;&lt;/div&gt;" style="text;html=1;align=left;verticalAlign=middle;whiteSpace=wrap;rounded=0;" vertex="1" parent="tMJNUVbW8pnuoRqj2yc3-14">
          <mxGeometry y="25" width="200" height="175" as="geometry" />
        </mxCell>
      </root>
    </mxGraphModel>
  </diagram>
</mxfile>
